<?xml version="1.0" encoding="UTF-8" standalone="no"?>
<!DOCTYPE svg PUBLIC "-//W3C//DTD SVG 1.1//EN" "http://www.w3.org/Graphics/SVG/1.1/DTD/svg11.dtd">
<!-- Created with Vectornator (http://vectornator.io/) -->
<svg height="100%" stroke-miterlimit="10" style="fill-rule:nonzero;clip-rule:evenodd;stroke-linecap:round;stroke-linejoin:round;" version="1.1" viewBox="0 0 7680 4320" width="100%" xml:space="preserve" xmlns="http://www.w3.org/2000/svg" xmlns:vectornator="http://vectornator.io" xmlns:xlink="http://www.w3.org/1999/xlink">
<defs/>
<g id="Ebene-1" opacity="0.5" vectornator:layerName="Ebene 1"/>
<g id="Ebene-2" vectornator:layerName="Ebene 2">
<path d="M5025.07 310.199C4991.03 344.137 4997.47 474.235 5006.96 513.651C5013 538.706 5032.81 524.054 5067.01 698.721C5101.21 873.387 5130.79 1150.81 5130.79 1150.81L5161.42 1147.31L5142.69 604.179C5142.69 604.179 5143.82 492.544 5120.47 355.909C5108.54 331.563 5080.4 255.048 5025.07 310.199Z" fill="#000000" fill-rule="evenodd" opacity="1" stroke="#000000" stroke-linecap="round" stroke-linejoin="round" stroke-width="16.6639"/>
<path d="M2864.42 2521.53C2864.42 2521.53 1550.76 3453.58 1576.44 3879.23C1607.63 4358.1 2495.46 4124.4 3036.89 3754.47C3840 3169.19 3823.99 2527.04 3823.99 2527.04L3759.77 2516.03C3759.77 2516.03 3759.77 3393.03 2741.5 3824.19C2173.09 4064.87 1623.23 4121.88 1695.7 3800.34C1768.17 3478.8 3046.06 2517.86 3046.06 2517.86L2864.42 2521.53Z" fill="#000000" fill-rule="evenodd" opacity="1" stroke="#000000" stroke-linecap="round" stroke-linejoin="round" stroke-width="16.6639"/>
<g opacity="1">
<path d="M5208.78 1635.15C5208.78 1635.15 5572.57 1302.61 5682.86 1220.36C5793.14 1138.11 5837.03 1121.08 5947.28 1097.83C6057.53 1074.58 6123.86 1099.98 6123.86 1127.36C6123.86 1154.75 5973.81 1140.23 5897.23 1170.26C5781.78 1215.54 5641.16 1306.22 5641.16 1306.22L5233.86 1661.37L5208.78 1635.15Z" fill="#000000" fill-rule="evenodd" opacity="1" stroke="#000000" stroke-linecap="round" stroke-linejoin="round" stroke-width="13.1703"/>
<path d="M5872.72 1178.95C5872.72 1178.95 5792.25 1228.8 5781.25 1259.82C5775.51 1275.98 5781.46 1386.85 5782.75 1489.97C5783.93 1584.75 5786.67 1629.98 5756.93 1716.84C5727.2 1803.69 5564.08 1937.52 5365.29 1937.52C5151.62 1937.52 5115.47 1822.71 5094.79 1782.31C5074.11 1741.91 5072.77 1665.69 5108.74 1628.86C5144.71 1592.03 5180.1 1571.62 5233.86 1615.95C5288.22 1660.78 5355.72 1699.4 5505.61 1715.87C5657.45 1732.56 5805.81 1674.33 5892.21 1645.36C5978.62 1616.4 6108.25 1493.77 6121.98 1512.11C6135.72 1530.46 6039.28 1612.6 5900.69 1675.01C5762.11 1737.42 5662.39 1752.99 5484.99 1760.11C5233.86 1770.2 5217.65 1688.85 5186.18 1712.02C5169.96 1723.96 5217.8 1856.62 5359.11 1852.8C5450.16 1850.34 5501.76 1819.43 5575.13 1757.03C5678.86 1668.83 5644.31 1365.55 5661.58 1320.13C5678.86 1274.7 5872.72 1178.95 5872.72 1178.95Z" fill="#000000" fill-rule="evenodd" opacity="1" stroke="#000000" stroke-linecap="round" stroke-linejoin="round" stroke-width="13.1703"/>
</g>
<path d="M2655.06 1340.31C2655.06 1340.31 2681.83 1201.93 2553.13 1231.46C2448.11 1255.56 2395.8 1296.82 2236.06 1441.31C2076.32 1585.79 1939.69 1788.07 1963.09 1814.26C1986.49 1840.45 2059.15 1797.5 2208.24 1669.4C2362.58 1536.79 2600.06 1353.31 2600.06 1353.31C2600.06 1353.31 2753.79 1221.17 2700.06 1444.31C2672.15 1560.21 2524.99 1756.24 2544.76 1826.95C2564.52 1897.66 2779.12 1727.15 2779.12 1727.15L2802.19 1768.01L2717.12 1831.12C2717.12 1831.12 2517.13 2007.4 2444.25 1915.78C2371.37 1824.15 2556.5 1527.34 2544.25 1523.5C2537.59 1521.42 2464.93 1596.49 2384.5 1671.22C2317.1 1733.85 2245.89 1791.13 2187.41 1852.11C2141.29 1900.21 2030.09 1989.85 1947.53 1932.81C1891.16 1893.87 1863.18 1812.88 1894.81 1739.73C1943.77 1626.52 2017.24 1483.57 2074.99 1431.95C2217.65 1304.44 2366.75 1167.67 2496.5 1159.42C2626.25 1151.17 2699.3 1197.22 2686.06 1300.31C2678.78 1356.95 2655.06 1340.31 2655.06 1340.31Z" fill="#000000" fill-rule="evenodd" opacity="1" stroke="#000000" stroke-linecap="round" stroke-linejoin="round" stroke-width="13.1703"/>
<path d="M3595.22 1482.17C3625.63 1498.37 3607.07 1374.57 3607.07 1374.57C3607.07 1374.57 3599.49 1242.05 3432.28 1257.04C3348.88 1264.51 3277.69 1288.59 3068.17 1428.37C2858.65 1568.15 2682.58 1777.35 2711.38 1857.26C2740.19 1937.17 2781.58 1955.85 2978.9 1886.63C3172.65 1818.67 3505.75 1668.55 3558.9 1695.91C3669.55 1752.86 3684.58 1846.91 3684.58 1846.91L3418.32 2086.72L3545.98 2091.28L3709.2 1936.27L3743.85 2083.99L3821.36 2090.37L3793.09 1866.06L4046.11 1629.86L4108.93 1581.72L4124.43 1475.79L3764.48 1786.58C3764.48 1786.58 3726.99 1583.07 3483.08 1594.29C3239.17 1605.52 2814.75 1842.08 2806.94 1824.88C2799.12 1807.69 2971.67 1592.53 3140.71 1466.1C3309.74 1339.66 3371.8 1305.75 3485.42 1309.76C3599.05 1313.78 3564.81 1465.97 3595.22 1482.17Z" fill="#000000" fill-rule="evenodd" opacity="1" stroke="#000000" stroke-linecap="round" stroke-linejoin="round" stroke-width="13.1703"/>
<path d="M4767.95 1293.72C4767.95 1293.72 4794.72 1155.34 4666.02 1184.87C4561 1208.97 4510.51 1257.75 4350.76 1402.24C4191.02 1546.72 4068.97 1754.52 4092.37 1780.71C4115.77 1806.9 4127.49 1801.67 4276.58 1673.57C4328.7 1628.78 4458 1525.04 4516.74 1477.68C4631.92 1384.8 4712.95 1306.72 4712.95 1306.72C4712.95 1306.72 4887.74 1172.48 4834.01 1395.61C4806.1 1511.52 4667.7 1776.57 4670.16 1792.13C4672.62 1807.7 4837.29 1783.94 4837.29 1783.94L4808.61 1811.79C4808.61 1811.79 4630.02 1960.81 4557.14 1869.18C4484.26 1777.56 4669.39 1480.75 4657.14 1476.91C4650.48 1474.83 4581.45 1565.77 4501.02 1640.51C4433.62 1703.14 4381.57 1757.45 4301.1 1822.2C4249.17 1863.98 4142.98 1943.26 4060.42 1886.22C4004.05 1847.28 3994.46 1786.37 4019.44 1690.81C4050.64 1571.47 4038.46 1551.56 4141.41 1455.05C4272.18 1332.45 4479.64 1121.07 4609.39 1112.82C4739.14 1104.57 4825.79 1138.39 4808.16 1269.19C4800.53 1325.79 4767.95 1293.72 4767.95 1293.72Z" fill="#000000" fill-rule="evenodd" opacity="1" stroke="#000000" stroke-linecap="round" stroke-linejoin="round" stroke-width="13.1703"/>
<g opacity="1">
<path d="M1436.75 2321.55L1437.15 2321.55L1479.39 2211.62L1510.51 2211.62L1510.51 2354.69L1490.5 2354.69L1490.5 2235.06L1490.1 2235.06L1442.61 2354.69L1429.88 2354.69L1382.59 2235.06L1382.19 2235.06L1382.19 2354.69L1362.78 2354.69L1362.78 2211.62L1393.91 2211.62L1436.75 2321.55Z" fill="#000000" fill-rule="evenodd" opacity="1" stroke="none"/>
<path d="M1654.17 2354.69L1634.16 2354.69L1634.16 2211.62L1654.17 2211.62L1654.17 2354.69Z" fill="#000000" fill-rule="evenodd" opacity="1" stroke="none"/>
<path d="M1831.27 2354.69L1811.26 2354.69L1811.26 2229.2L1765.39 2229.2L1765.39 2211.62L1877.14 2211.62L1877.14 2229.2L1831.27 2229.2L1831.27 2354.69Z" fill="#000000" fill-rule="evenodd" opacity="1" stroke="none"/>
<path d="M2208.44 2354.69L2186.21 2354.69L2248.25 2211.62L2266.44 2211.62L2327.88 2354.69L2305.24 2354.69L2290.69 2319.53L2222.79 2319.53L2208.44 2354.69ZM2229.86 2301.95L2283.42 2301.95L2256.74 2234.86L2229.86 2301.95Z" fill="#000000" fill-rule="evenodd" opacity="1" stroke="none"/>
<path d="M2448.07 2336.91L2511.93 2336.91L2511.93 2354.69L2428.06 2354.69L2428.06 2211.62L2448.07 2211.62L2448.07 2336.91Z" fill="#000000" fill-rule="evenodd" opacity="1" stroke="none"/>
<path d="M2641.38 2336.91L2705.24 2336.91L2705.24 2354.69L2621.38 2354.69L2621.38 2211.62L2641.38 2211.62L2641.38 2336.91Z" fill="#000000" fill-rule="evenodd" opacity="1" stroke="none"/>
<path d="M2819.54 2336.91L2894.32 2336.91L2894.32 2354.69L2799.54 2354.69L2799.54 2211.62L2891.29 2211.62L2891.29 2229.2L2819.54 2229.2L2819.54 2272.04L2887.04 2272.04L2887.04 2289.22L2819.54 2289.22L2819.54 2336.91Z" fill="#000000" fill-rule="evenodd" opacity="1" stroke="none"/>
<path d="M3109.09 2326L3109.5 2326L3109.5 2211.62L3129.5 2211.62L3129.5 2354.69L3104.24 2354.69L3028.66 2237.89L3028.26 2237.89L3028.26 2354.69L3008.25 2354.69L3008.25 2211.62L3034.32 2211.62L3109.09 2326Z" fill="#000000" fill-rule="evenodd" opacity="1" stroke="none"/>
<path d="M3525.33 2238.09C3522.51 2234.18 3518.67 2230.98 3513.82 2228.49C3508.97 2226 3503.51 2224.75 3497.45 2224.75C3494.21 2224.75 3490.95 2225.19 3487.65 2226.07C3484.34 2226.94 3481.35 2228.36 3478.65 2230.31C3475.96 2232.26 3473.77 2234.69 3472.08 2237.58C3470.4 2240.48 3469.56 2243.95 3469.56 2247.99C3469.56 2251.9 3470.33 2255.17 3471.88 2257.79C3473.43 2260.42 3475.52 2262.64 3478.15 2264.46C3480.77 2266.28 3483.87 2267.83 3487.44 2269.11C3491.01 2270.39 3494.82 2271.7 3498.86 2273.05C3503.71 2274.53 3508.63 2276.22 3513.61 2278.1C3518.6 2279.99 3523.11 2282.48 3527.15 2285.58C3531.19 2288.68 3534.5 2292.55 3537.06 2297.2C3539.61 2301.85 3540.89 2307.74 3540.89 2314.88C3540.89 2322.29 3539.51 2328.73 3536.75 2334.18C3533.99 2339.64 3530.32 2344.15 3525.74 2347.72C3521.16 2351.29 3515.87 2353.95 3509.87 2355.7C3503.88 2357.46 3497.72 2358.33 3491.38 2358.33C3482.36 2358.33 3473.63 2356.58 3465.21 2353.08C3456.79 2349.57 3449.82 2344.39 3444.3 2337.52L3459.86 2324.38C3463.23 2329.37 3467.74 2333.41 3473.4 2336.51C3479.06 2339.6 3485.19 2341.15 3491.79 2341.15C3495.16 2341.15 3498.52 2340.68 3501.89 2339.74C3505.26 2338.8 3508.33 2337.31 3511.09 2335.29C3513.85 2333.27 3516.11 2330.75 3517.86 2327.71C3519.61 2324.68 3520.48 2321.01 3520.48 2316.7C3520.48 2312.39 3519.57 2308.79 3517.76 2305.89C3515.94 2302.99 3513.48 2300.53 3510.38 2298.51C3507.28 2296.49 3503.68 2294.77 3499.57 2293.36C3495.46 2291.95 3491.11 2290.5 3486.53 2289.02C3481.95 2287.67 3477.44 2286.02 3472.99 2284.06C3468.55 2282.11 3464.57 2279.62 3461.07 2276.59C3457.57 2273.56 3454.74 2269.82 3452.58 2265.37C3450.43 2260.93 3449.35 2255.4 3449.35 2248.8C3449.35 2241.66 3450.8 2235.53 3453.69 2230.41C3456.59 2225.29 3460.36 2221.05 3465.01 2217.68C3469.66 2214.31 3474.91 2211.85 3480.77 2210.3C3486.63 2208.75 3492.53 2207.98 3498.46 2207.98C3506.81 2207.98 3514.62 2209.46 3521.9 2212.42C3529.17 2215.39 3535.03 2219.36 3539.48 2224.35" fill="#000000" fill-rule="evenodd" opacity="1" stroke="none"/>
<path d="M3678.11 2354.69L3658.1 2354.69L3658.1 2211.62L3678.11 2211.62L3678.11 2354.69Z" fill="#000000" fill-rule="evenodd" opacity="1" stroke="none"/>
<path d="M3892.59 2326L3893 2326L3893 2211.62L3913.01 2211.62L3913.01 2354.69L3887.74 2354.69L3812.16 2237.89L3811.76 2237.89L3811.76 2354.69L3791.75 2354.69L3791.75 2211.62L3817.82 2211.62L3892.59 2326Z" fill="#000000" fill-rule="evenodd" opacity="1" stroke="none"/>
<path d="M4124.96 2326L4125.37 2326L4125.37 2211.62L4145.38 2211.62L4145.38 2354.69L4120.11 2354.69L4044.53 2237.89L4044.13 2237.89L4044.13 2354.69L4024.12 2354.69L4024.12 2211.62L4050.19 2211.62L4124.96 2326Z" fill="#000000" fill-rule="evenodd" opacity="1" stroke="none"/>
<path d="M4289.8 2336.91L4364.57 2336.91L4364.57 2354.69L4269.79 2354.69L4269.79 2211.62L4361.54 2211.62L4361.54 2229.2L4289.8 2229.2L4289.8 2272.04L4357.3 2272.04L4357.3 2289.22L4289.8 2289.22L4289.8 2336.91Z" fill="#000000" fill-rule="evenodd" opacity="1" stroke="none"/>
<path d="M4580.46 2326L4580.87 2326L4580.87 2211.62L4600.87 2211.62L4600.87 2354.69L4575.61 2354.69L4500.03 2237.89L4499.63 2237.89L4499.63 2354.69L4479.62 2354.69L4479.62 2211.62L4505.69 2211.62L4580.46 2326Z" fill="#000000" fill-rule="evenodd" opacity="1" stroke="none"/>
<path d="M5019.41 2241.12C5015.1 2236.41 5009.61 2232.63 5002.94 2229.8C4996.27 2226.97 4988.83 2225.56 4980.61 2225.56C4972.26 2225.56 4964.71 2227.08 4957.98 2230.11C4951.24 2233.14 4945.52 2237.28 4940.8 2242.54C4936.08 2247.79 4932.45 2253.89 4929.89 2260.82C4927.33 2267.76 4926.05 2275.14 4926.05 2282.95C4926.05 2290.9 4927.33 2298.38 4929.89 2305.38C4932.45 2312.39 4936.08 2318.49 4940.8 2323.67C4945.52 2328.86 4951.31 2332.94 4958.18 2335.9C4965.05 2338.86 4972.73 2340.35 4981.22 2340.35C4987.95 2340.35 4994.15 2339.74 4999.81 2338.53C5005.47 2337.31 5010.39 2335.56 5014.56 2333.27L5014.56 2293.46L4982.83 2293.46L4982.83 2276.49L5034.37 2276.49L5034.37 2345.8C5026.82 2349.84 5018.6 2352.94 5009.71 2355.1C5000.82 2357.25 4991.12 2358.33 4980.61 2358.33C4969.43 2358.33 4959.16 2356.48 4949.79 2352.77C4940.43 2349.07 4932.38 2343.88 4925.64 2337.21C4918.91 2330.54 4913.65 2322.6 4909.88 2313.37C4906.11 2304.14 4904.22 2294 4904.22 2282.95C4904.22 2271.77 4906.14 2261.57 4909.98 2252.34C4913.82 2243.11 4919.14 2235.23 4925.95 2228.69C4932.75 2222.16 4940.8 2217.07 4950.1 2213.44C4959.39 2209.8 4969.5 2207.98 4980.41 2207.98C4991.86 2207.98 5002.07 2209.66 5011.03 2213.03C5019.98 2216.4 5027.43 2220.91 5033.36 2226.57L5019.41 2241.12Z" fill="#000000" fill-rule="evenodd" opacity="1" stroke="none"/>
<path d="M5165.14 2336.91L5239.92 2336.91L5239.92 2354.69L5145.14 2354.69L5145.14 2211.62L5236.88 2211.62L5236.88 2229.2L5165.14 2229.2L5165.14 2272.04L5232.64 2272.04L5232.64 2289.22L5165.14 2289.22L5165.14 2336.91Z" fill="#000000" fill-rule="evenodd" opacity="1" stroke="none"/>
<path d="M5466 2326L5466.41 2326L5466.41 2211.62L5486.41 2211.62L5486.41 2354.69L5461.15 2354.69L5385.57 2237.89L5385.17 2237.89L5385.17 2354.69L5365.16 2354.69L5365.16 2211.62L5391.23 2211.62L5466 2326Z" fill="#000000" fill-rule="evenodd" opacity="1" stroke="none"/>
<path d="M5607.6 2354.69L5587.59 2354.69L5587.59 2211.62L5607.6 2211.62L5607.6 2354.69Z" fill="#000000" fill-rule="evenodd" opacity="1" stroke="none"/>
<path d="M5746.12 2336.91L5820.89 2336.91L5820.89 2354.69L5726.11 2354.69L5726.11 2211.62L5817.86 2211.62L5817.86 2229.2L5746.12 2229.2L5746.12 2272.04L5813.62 2272.04L5813.62 2289.22L5746.12 2289.22L5746.12 2336.91Z" fill="#000000" fill-rule="evenodd" opacity="1" stroke="none"/>
<path d="M6450.51 2326L6450.92 2326L6450.92 2211.62L6470.92 2211.62L6470.92 2354.69L6445.66 2354.69L6370.08 2237.89L6369.68 2237.89L6369.68 2354.69L6349.67 2354.69L6349.67 2211.62L6375.74 2211.62L6450.51 2326Z" fill="#000000" fill-rule="evenodd" opacity="1" stroke="none"/>
<path d="M5951.92 2354.69L5932.93 2354.69L5932.93 2248.6C5932.93 2242.54 5933.7 2236.54 5935.25 2230.61C5936.8 2224.68 5939.36 2219.43 5942.93 2214.85C5946.5 2210.27 5951.22 2206.56 5957.08 2203.73C5962.94 2200.91 5970.18 2199.49 5978.8 2199.49C5984.6 2199.49 5989.98 2200.4 5994.97 2202.22C5999.95 2204.04 6004.3 2206.6 6008 2209.9C6011.71 2213.2 6014.6 2217.14 6016.69 2221.72C6018.78 2226.3 6019.83 2231.42 6019.83 2237.08C6019.83 2244.62 6017.84 2251.12 6013.86 2256.58C6009.89 2262.04 6004.4 2265.91 5997.39 2268.2L5997.39 2268.6C6002.51 2269.41 6007.16 2270.96 6011.34 2273.25C6015.51 2275.54 6019.05 2278.47 6021.95 2282.04C6024.84 2285.61 6027.1 2289.76 6028.72 2294.47C6030.33 2299.19 6031.14 2304.31 6031.14 2309.83C6031.14 2316.84 6030 2323.24 6027.71 2329.03C6025.42 2334.82 6022.15 2339.81 6017.91 2343.98C6013.66 2348.16 6008.51 2351.39 6002.45 2353.68C5996.38 2355.97 5989.58 2357.12 5982.04 2357.12C5977.45 2357.12 5972.67 2356.58 5967.69 2355.5L5967.69 2339.54C5969.17 2339.94 5971.09 2340.28 5973.45 2340.55C5975.8 2340.82 5977.86 2340.95 5979.61 2340.95C5989.31 2340.95 5997.06 2338.12 6002.85 2332.46C6008.64 2326.81 6011.54 2318.99 6011.54 2309.02C6011.54 2303.77 6010.66 2299.15 6008.91 2295.18C6007.16 2291.2 6004.7 2287.94 6001.54 2285.38C5998.37 2282.82 5994.67 2280.9 5990.42 2279.62C5986.18 2278.34 5981.56 2277.7 5976.58 2277.7L5974.36 2277.7L5974.36 2261.13L5976.58 2261.13C5983.72 2261.13 5989.55 2259.24 5994.06 2255.47C5998.57 2251.7 6000.83 2246.17 6000.83 2238.9C6000.83 2232.3 5998.77 2226.87 5994.67 2222.63C5990.56 2218.39 5985 2216.26 5977.99 2216.26C5972.6 2216.26 5968.23 2217.31 5964.86 2219.4C5961.49 2221.48 5958.83 2224.15 5956.88 2227.38C5954.92 2230.61 5953.61 2234.18 5952.93 2238.09C5952.26 2242 5951.92 2245.77 5951.92 2249.41L5951.92 2354.69Z" fill="#000000" fill-rule="evenodd" opacity="1" stroke="none"/>
<path d="M6162.44 2336.91L6237.21 2336.91L6237.21 2354.69L6142.44 2354.69L6142.44 2211.62L6234.18 2211.62L6234.18 2229.2L6162.44 2229.2L6162.44 2272.04L6229.94 2272.04L6229.94 2289.22L6162.44 2289.22L6162.44 2336.91Z" fill="#000000" fill-rule="evenodd" opacity="1" stroke="none"/>
<path d="M1144.01 2278.66C1144.01 2266.76 1153.66 2257.11 1165.56 2257.11C1177.46 2257.11 1187.11 2266.76 1187.11 2278.66C1187.11 2290.56 1177.46 2300.21 1165.56 2300.21C1153.66 2300.21 1144.01 2290.56 1144.01 2278.66Z" fill="#000000" fill-rule="evenodd" opacity="1" stroke="none"/>
<path d="M6648.32 2281.27C6648.32 2269.37 6657.96 2259.72 6669.86 2259.72C6681.77 2259.72 6691.41 2269.37 6691.41 2281.27C6691.41 2293.17 6681.77 2302.82 6669.86 2302.82C6657.96 2302.82 6648.32 2293.17 6648.32 2281.27Z" fill="#000000" fill-rule="evenodd" opacity="1" stroke="none"/>
</g>
</g>
</svg>
